# Perfect CCW Cylinder
g cylinder
v 0.500000 1.000000 0.000000
v 0.500000 -1.000000 0.000000
v 0.490393 1.000000 0.097545
v 0.490393 -1.000000 0.097545
v 0.461940 1.000000 0.191342
v 0.461940 -1.000000 0.191342
v 0.415735 1.000000 0.277785
v 0.415735 -1.000000 0.277785
v 0.353553 1.000000 0.353553
v 0.353553 -1.000000 0.353553
v 0.277785 1.000000 0.415735
v 0.277785 -1.000000 0.415735
v 0.191342 1.000000 0.461940
v 0.191342 -1.000000 0.461940
v 0.097545 1.000000 0.490393
v 0.097545 -1.000000 0.490393
v 0.000000 1.000000 0.500000
v 0.000000 -1.000000 0.500000
v -0.097545 1.000000 0.490393
v -0.097545 -1.000000 0.490393
v -0.191342 1.000000 0.461940
v -0.191342 -1.000000 0.461940
v -0.277785 1.000000 0.415735
v -0.277785 -1.000000 0.415735
v -0.353553 1.000000 0.353553
v -0.353553 -1.000000 0.353553
v -0.415735 1.000000 0.277785
v -0.415735 -1.000000 0.277785
v -0.461940 1.000000 0.191342
v -0.461940 -1.000000 0.191342
v -0.490393 1.000000 0.097545
v -0.490393 -1.000000 0.097545
v -0.500000 1.000000 0.000000
v -0.500000 -1.000000 0.000000
v -0.490393 1.000000 -0.097545
v -0.490393 -1.000000 -0.097545
v -0.461940 1.000000 -0.191342
v -0.461940 -1.000000 -0.191342
v -0.415735 1.000000 -0.277785
v -0.415735 -1.000000 -0.277785
v -0.353553 1.000000 -0.353553
v -0.353553 -1.000000 -0.353553
v -0.277785 1.000000 -0.415735
v -0.277785 -1.000000 -0.415735
v -0.191342 1.000000 -0.461940
v -0.191342 -1.000000 -0.461940
v -0.097545 1.000000 -0.490393
v -0.097545 -1.000000 -0.490393
v -0.000000 1.000000 -0.500000
v -0.000000 -1.000000 -0.500000
v 0.097545 1.000000 -0.490393
v 0.097545 -1.000000 -0.490393
v 0.191342 1.000000 -0.461940
v 0.191342 -1.000000 -0.461940
v 0.277785 1.000000 -0.415735
v 0.277785 -1.000000 -0.415735
v 0.353553 1.000000 -0.353553
v 0.353553 -1.000000 -0.353553
v 0.415735 1.000000 -0.277785
v 0.415735 -1.000000 -0.277785
v 0.461940 1.000000 -0.191342
v 0.461940 -1.000000 -0.191342
v 0.490393 1.000000 -0.097545
v 0.490393 -1.000000 -0.097545
v 0.500000 1.000000 -0.000000
v 0.500000 -1.000000 -0.000000
v 0.000000 1.000000 0.000000
v 0.500000 1.000000 0.000000
v 0.490393 1.000000 0.097545
v 0.461940 1.000000 0.191342
v 0.415735 1.000000 0.277785
v 0.353553 1.000000 0.353553
v 0.277785 1.000000 0.415735
v 0.191342 1.000000 0.461940
v 0.097545 1.000000 0.490393
v 0.000000 1.000000 0.500000
v -0.097545 1.000000 0.490393
v -0.191342 1.000000 0.461940
v -0.277785 1.000000 0.415735
v -0.353553 1.000000 0.353553
v -0.415735 1.000000 0.277785
v -0.461940 1.000000 0.191342
v -0.490393 1.000000 0.097545
v -0.500000 1.000000 0.000000
v -0.490393 1.000000 -0.097545
v -0.461940 1.000000 -0.191342
v -0.415735 1.000000 -0.277785
v -0.353553 1.000000 -0.353553
v -0.277785 1.000000 -0.415735
v -0.191342 1.000000 -0.461940
v -0.097545 1.000000 -0.490393
v -0.000000 1.000000 -0.500000
v 0.097545 1.000000 -0.490393
v 0.191342 1.000000 -0.461940
v 0.277785 1.000000 -0.415735
v 0.353553 1.000000 -0.353553
v 0.415735 1.000000 -0.277785
v 0.461940 1.000000 -0.191342
v 0.490393 1.000000 -0.097545
v 0.500000 1.000000 -0.000000
v 0.000000 -1.000000 0.000000
v 0.500000 -1.000000 0.000000
v 0.490393 -1.000000 0.097545
v 0.461940 -1.000000 0.191342
v 0.415735 -1.000000 0.277785
v 0.353553 -1.000000 0.353553
v 0.277785 -1.000000 0.415735
v 0.191342 -1.000000 0.461940
v 0.097545 -1.000000 0.490393
v 0.000000 -1.000000 0.500000
v -0.097545 -1.000000 0.490393
v -0.191342 -1.000000 0.461940
v -0.277785 -1.000000 0.415735
v -0.353553 -1.000000 0.353553
v -0.415735 -1.000000 0.277785
v -0.461940 -1.000000 0.191342
v -0.490393 -1.000000 0.097545
v -0.500000 -1.000000 0.000000
v -0.490393 -1.000000 -0.097545
v -0.461940 -1.000000 -0.191342
v -0.415735 -1.000000 -0.277785
v -0.353553 -1.000000 -0.353553
v -0.277785 -1.000000 -0.415735
v -0.191342 -1.000000 -0.461940
v -0.097545 -1.000000 -0.490393
v -0.000000 -1.000000 -0.500000
v 0.097545 -1.000000 -0.490393
v 0.191342 -1.000000 -0.461940
v 0.277785 -1.000000 -0.415735
v 0.353553 -1.000000 -0.353553
v 0.415735 -1.000000 -0.277785
v 0.461940 -1.000000 -0.191342
v 0.490393 -1.000000 -0.097545
v 0.500000 -1.000000 -0.000000
vt 0.000000 1.000000
vt 0.000000 0.000000
vt 0.031250 1.000000
vt 0.031250 0.000000
vt 0.062500 1.000000
vt 0.062500 0.000000
vt 0.093750 1.000000
vt 0.093750 0.000000
vt 0.125000 1.000000
vt 0.125000 0.000000
vt 0.156250 1.000000
vt 0.156250 0.000000
vt 0.187500 1.000000
vt 0.187500 0.000000
vt 0.218750 1.000000
vt 0.218750 0.000000
vt 0.250000 1.000000
vt 0.250000 0.000000
vt 0.281250 1.000000
vt 0.281250 0.000000
vt 0.312500 1.000000
vt 0.312500 0.000000
vt 0.343750 1.000000
vt 0.343750 0.000000
vt 0.375000 1.000000
vt 0.375000 0.000000
vt 0.406250 1.000000
vt 0.406250 0.000000
vt 0.437500 1.000000
vt 0.437500 0.000000
vt 0.468750 1.000000
vt 0.468750 0.000000
vt 0.500000 1.000000
vt 0.500000 0.000000
vt 0.531250 1.000000
vt 0.531250 0.000000
vt 0.562500 1.000000
vt 0.562500 0.000000
vt 0.593750 1.000000
vt 0.593750 0.000000
vt 0.625000 1.000000
vt 0.625000 0.000000
vt 0.656250 1.000000
vt 0.656250 0.000000
vt 0.687500 1.000000
vt 0.687500 0.000000
vt 0.718750 1.000000
vt 0.718750 0.000000
vt 0.750000 1.000000
vt 0.750000 0.000000
vt 0.781250 1.000000
vt 0.781250 0.000000
vt 0.812500 1.000000
vt 0.812500 0.000000
vt 0.843750 1.000000
vt 0.843750 0.000000
vt 0.875000 1.000000
vt 0.875000 0.000000
vt 0.906250 1.000000
vt 0.906250 0.000000
vt 0.937500 1.000000
vt 0.937500 0.000000
vt 0.968750 1.000000
vt 0.968750 0.000000
vt 1.000000 1.000000
vt 1.000000 0.000000
vt 0.500000 0.500000
vt 1.000000 0.500000
vt 0.990393 0.597545
vt 0.961940 0.691342
vt 0.915735 0.777785
vt 0.853553 0.853553
vt 0.777785 0.915735
vt 0.691342 0.961940
vt 0.597545 0.990393
vt 0.500000 1.000000
vt 0.402455 0.990393
vt 0.308658 0.961940
vt 0.222215 0.915735
vt 0.146447 0.853553
vt 0.084265 0.777785
vt 0.038060 0.691342
vt 0.009607 0.597545
vt 0.000000 0.500000
vt 0.009607 0.402455
vt 0.038060 0.308658
vt 0.084265 0.222215
vt 0.146447 0.146447
vt 0.222215 0.084265
vt 0.308658 0.038060
vt 0.402455 0.009607
vt 0.500000 0.000000
vt 0.597545 0.009607
vt 0.691342 0.038060
vt 0.777785 0.084265
vt 0.853553 0.146447
vt 0.915735 0.222215
vt 0.961940 0.308658
vt 0.990393 0.402455
vt 1.000000 0.500000
vt 0.500000 0.500000
vt 1.000000 0.500000
vt 0.990393 0.597545
vt 0.961940 0.691342
vt 0.915735 0.777785
vt 0.853553 0.853553
vt 0.777785 0.915735
vt 0.691342 0.961940
vt 0.597545 0.990393
vt 0.500000 1.000000
vt 0.402455 0.990393
vt 0.308658 0.961940
vt 0.222215 0.915735
vt 0.146447 0.853553
vt 0.084265 0.777785
vt 0.038060 0.691342
vt 0.009607 0.597545
vt 0.000000 0.500000
vt 0.009607 0.402455
vt 0.038060 0.308658
vt 0.084265 0.222215
vt 0.146447 0.146447
vt 0.222215 0.084265
vt 0.308658 0.038060
vt 0.402455 0.009607
vt 0.500000 0.000000
vt 0.597545 0.009607
vt 0.691342 0.038060
vt 0.777785 0.084265
vt 0.853553 0.146447
vt 0.915735 0.222215
vt 0.961940 0.308658
vt 0.990393 0.402455
vt 1.000000 0.500000
vn 1.000000 0.000000 0.000000
vn 1.000000 0.000000 0.000000
vn 0.980785 0.000000 0.195090
vn 0.980785 0.000000 0.195090
vn 0.923880 0.000000 0.382683
vn 0.923880 0.000000 0.382683
vn 0.831470 0.000000 0.555570
vn 0.831470 0.000000 0.555570
vn 0.707107 0.000000 0.707107
vn 0.707107 0.000000 0.707107
vn 0.555570 0.000000 0.831470
vn 0.555570 0.000000 0.831470
vn 0.382683 0.000000 0.923880
vn 0.382683 0.000000 0.923880
vn 0.195090 0.000000 0.980785
vn 0.195090 0.000000 0.980785
vn 0.000000 0.000000 1.000000
vn 0.000000 0.000000 1.000000
vn -0.195090 0.000000 0.980785
vn -0.195090 0.000000 0.980785
vn -0.382683 0.000000 0.923880
vn -0.382683 0.000000 0.923880
vn -0.555570 0.000000 0.831470
vn -0.555570 0.000000 0.831470
vn -0.707107 0.000000 0.707107
vn -0.707107 0.000000 0.707107
vn -0.831470 0.000000 0.555570
vn -0.831470 0.000000 0.555570
vn -0.923880 0.000000 0.382683
vn -0.923880 0.000000 0.382683
vn -0.980785 0.000000 0.195090
vn -0.980785 0.000000 0.195090
vn -1.000000 0.000000 0.000000
vn -1.000000 0.000000 0.000000
vn -0.980785 0.000000 -0.195090
vn -0.980785 0.000000 -0.195090
vn -0.923880 0.000000 -0.382683
vn -0.923880 0.000000 -0.382683
vn -0.831470 0.000000 -0.555570
vn -0.831470 0.000000 -0.555570
vn -0.707107 0.000000 -0.707107
vn -0.707107 0.000000 -0.707107
vn -0.555570 0.000000 -0.831470
vn -0.555570 0.000000 -0.831470
vn -0.382683 0.000000 -0.923880
vn -0.382683 0.000000 -0.923880
vn -0.195090 0.000000 -0.980785
vn -0.195090 0.000000 -0.980785
vn -0.000000 0.000000 -1.000000
vn -0.000000 0.000000 -1.000000
vn 0.195090 0.000000 -0.980785
vn 0.195090 0.000000 -0.980785
vn 0.382683 0.000000 -0.923880
vn 0.382683 0.000000 -0.923880
vn 0.555570 0.000000 -0.831470
vn 0.555570 0.000000 -0.831470
vn 0.707107 0.000000 -0.707107
vn 0.707107 0.000000 -0.707107
vn 0.831470 0.000000 -0.555570
vn 0.831470 0.000000 -0.555570
vn 0.923880 0.000000 -0.382683
vn 0.923880 0.000000 -0.382683
vn 0.980785 0.000000 -0.195090
vn 0.980785 0.000000 -0.195090
vn 1.000000 0.000000 -0.000000
vn 1.000000 0.000000 -0.000000
vn 0.000000 1.000000 0.000000
vn 0.000000 1.000000 0.000000
vn 0.000000 1.000000 0.000000
vn 0.000000 1.000000 0.000000
vn 0.000000 1.000000 0.000000
vn 0.000000 1.000000 0.000000
vn 0.000000 1.000000 0.000000
vn 0.000000 1.000000 0.000000
vn 0.000000 1.000000 0.000000
vn 0.000000 1.000000 0.000000
vn 0.000000 1.000000 0.000000
vn 0.000000 1.000000 0.000000
vn 0.000000 1.000000 0.000000
vn 0.000000 1.000000 0.000000
vn 0.000000 1.000000 0.000000
vn 0.000000 1.000000 0.000000
vn 0.000000 1.000000 0.000000
vn 0.000000 1.000000 0.000000
vn 0.000000 1.000000 0.000000
vn 0.000000 1.000000 0.000000
vn 0.000000 1.000000 0.000000
vn 0.000000 1.000000 0.000000
vn 0.000000 1.000000 0.000000
vn 0.000000 1.000000 0.000000
vn 0.000000 1.000000 0.000000
vn 0.000000 1.000000 0.000000
vn 0.000000 1.000000 0.000000
vn 0.000000 1.000000 0.000000
vn 0.000000 1.000000 0.000000
vn 0.000000 1.000000 0.000000
vn 0.000000 1.000000 0.000000
vn 0.000000 1.000000 0.000000
vn 0.000000 1.000000 0.000000
vn 0.000000 1.000000 0.000000
vn 0.000000 -1.000000 0.000000
vn 0.000000 -1.000000 0.000000
vn 0.000000 -1.000000 0.000000
vn 0.000000 -1.000000 0.000000
vn 0.000000 -1.000000 0.000000
vn 0.000000 -1.000000 0.000000
vn 0.000000 -1.000000 0.000000
vn 0.000000 -1.000000 0.000000
vn 0.000000 -1.000000 0.000000
vn 0.000000 -1.000000 0.000000
vn 0.000000 -1.000000 0.000000
vn 0.000000 -1.000000 0.000000
vn 0.000000 -1.000000 0.000000
vn 0.000000 -1.000000 0.000000
vn 0.000000 -1.000000 0.000000
vn 0.000000 -1.000000 0.000000
vn 0.000000 -1.000000 0.000000
vn 0.000000 -1.000000 0.000000
vn 0.000000 -1.000000 0.000000
vn 0.000000 -1.000000 0.000000
vn 0.000000 -1.000000 0.000000
vn 0.000000 -1.000000 0.000000
vn 0.000000 -1.000000 0.000000
vn 0.000000 -1.000000 0.000000
vn 0.000000 -1.000000 0.000000
vn 0.000000 -1.000000 0.000000
vn 0.000000 -1.000000 0.000000
vn 0.000000 -1.000000 0.000000
vn 0.000000 -1.000000 0.000000
vn 0.000000 -1.000000 0.000000
vn 0.000000 -1.000000 0.000000
vn 0.000000 -1.000000 0.000000
vn 0.000000 -1.000000 0.000000
vn 0.000000 -1.000000 0.000000
f 1/1/1 3/3/3 2/2/2
f 2/2/2 3/3/3 4/4/4
f 3/3/3 5/5/5 4/4/4
f 4/4/4 5/5/5 6/6/6
f 5/5/5 7/7/7 6/6/6
f 6/6/6 7/7/7 8/8/8
f 7/7/7 9/9/9 8/8/8
f 8/8/8 9/9/9 10/10/10
f 9/9/9 11/11/11 10/10/10
f 10/10/10 11/11/11 12/12/12
f 11/11/11 13/13/13 12/12/12
f 12/12/12 13/13/13 14/14/14
f 13/13/13 15/15/15 14/14/14
f 14/14/14 15/15/15 16/16/16
f 15/15/15 17/17/17 16/16/16
f 16/16/16 17/17/17 18/18/18
f 17/17/17 19/19/19 18/18/18
f 18/18/18 19/19/19 20/20/20
f 19/19/19 21/21/21 20/20/20
f 20/20/20 21/21/21 22/22/22
f 21/21/21 23/23/23 22/22/22
f 22/22/22 23/23/23 24/24/24
f 23/23/23 25/25/25 24/24/24
f 24/24/24 25/25/25 26/26/26
f 25/25/25 27/27/27 26/26/26
f 26/26/26 27/27/27 28/28/28
f 27/27/27 29/29/29 28/28/28
f 28/28/28 29/29/29 30/30/30
f 29/29/29 31/31/31 30/30/30
f 30/30/30 31/31/31 32/32/32
f 31/31/31 33/33/33 32/32/32
f 32/32/32 33/33/33 34/34/34
f 33/33/33 35/35/35 34/34/34
f 34/34/34 35/35/35 36/36/36
f 35/35/35 37/37/37 36/36/36
f 36/36/36 37/37/37 38/38/38
f 37/37/37 39/39/39 38/38/38
f 38/38/38 39/39/39 40/40/40
f 39/39/39 41/41/41 40/40/40
f 40/40/40 41/41/41 42/42/42
f 41/41/41 43/43/43 42/42/42
f 42/42/42 43/43/43 44/44/44
f 43/43/43 45/45/45 44/44/44
f 44/44/44 45/45/45 46/46/46
f 45/45/45 47/47/47 46/46/46
f 46/46/46 47/47/47 48/48/48
f 47/47/47 49/49/49 48/48/48
f 48/48/48 49/49/49 50/50/50
f 49/49/49 51/51/51 50/50/50
f 50/50/50 51/51/51 52/52/52
f 51/51/51 53/53/53 52/52/52
f 52/52/52 53/53/53 54/54/54
f 53/53/53 55/55/55 54/54/54
f 54/54/54 55/55/55 56/56/56
f 55/55/55 57/57/57 56/56/56
f 56/56/56 57/57/57 58/58/58
f 57/57/57 59/59/59 58/58/58
f 58/58/58 59/59/59 60/60/60
f 59/59/59 61/61/61 60/60/60
f 60/60/60 61/61/61 62/62/62
f 61/61/61 63/63/63 62/62/62
f 62/62/62 63/63/63 64/64/64
f 63/63/63 65/65/65 64/64/64
f 64/64/64 65/65/65 66/66/66
f 67/67/67 69/69/69 68/68/68
f 67/67/67 70/70/70 69/69/69
f 67/67/67 71/71/71 70/70/70
f 67/67/67 72/72/72 71/71/71
f 67/67/67 73/73/73 72/72/72
f 67/67/67 74/74/74 73/73/73
f 67/67/67 75/75/75 74/74/74
f 67/67/67 76/76/76 75/75/75
f 67/67/67 77/77/77 76/76/76
f 67/67/67 78/78/78 77/77/77
f 67/67/67 79/79/79 78/78/78
f 67/67/67 80/80/80 79/79/79
f 67/67/67 81/81/81 80/80/80
f 67/67/67 82/82/82 81/81/81
f 67/67/67 83/83/83 82/82/82
f 67/67/67 84/84/84 83/83/83
f 67/67/67 85/85/85 84/84/84
f 67/67/67 86/86/86 85/85/85
f 67/67/67 87/87/87 86/86/86
f 67/67/67 88/88/88 87/87/87
f 67/67/67 89/89/89 88/88/88
f 67/67/67 90/90/90 89/89/89
f 67/67/67 91/91/91 90/90/90
f 67/67/67 92/92/92 91/91/91
f 67/67/67 93/93/93 92/92/92
f 67/67/67 94/94/94 93/93/93
f 67/67/67 95/95/95 94/94/94
f 67/67/67 96/96/96 95/95/95
f 67/67/67 97/97/97 96/96/96
f 67/67/67 98/98/98 97/97/97
f 67/67/67 99/99/99 98/98/98
f 67/67/67 100/100/100 99/99/99
f 101/101/101 102/102/102 103/103/103
f 101/101/101 103/103/103 104/104/104
f 101/101/101 104/104/104 105/105/105
f 101/101/101 105/105/105 106/106/106
f 101/101/101 106/106/106 107/107/107
f 101/101/101 107/107/107 108/108/108
f 101/101/101 108/108/108 109/109/109
f 101/101/101 109/109/109 110/110/110
f 101/101/101 110/110/110 111/111/111
f 101/101/101 111/111/111 112/112/112
f 101/101/101 112/112/112 113/113/113
f 101/101/101 113/113/113 114/114/114
f 101/101/101 114/114/114 115/115/115
f 101/101/101 115/115/115 116/116/116
f 101/101/101 116/116/116 117/117/117
f 101/101/101 117/117/117 118/118/118
f 101/101/101 118/118/118 119/119/119
f 101/101/101 119/119/119 120/120/120
f 101/101/101 120/120/120 121/121/121
f 101/101/101 121/121/121 122/122/122
f 101/101/101 122/122/122 123/123/123
f 101/101/101 123/123/123 124/124/124
f 101/101/101 124/124/124 125/125/125
f 101/101/101 125/125/125 126/126/126
f 101/101/101 126/126/126 127/127/127
f 101/101/101 127/127/127 128/128/128
f 101/101/101 128/128/128 129/129/129
f 101/101/101 129/129/129 130/130/130
f 101/101/101 130/130/130 131/131/131
f 101/101/101 131/131/131 132/132/132
f 101/101/101 132/132/132 133/133/133
f 101/101/101 133/133/133 134/134/134
